<svg xmlns="http://www.w3.org/2000/svg" viewBox="0 0 512 512" width="512" height="512">
  <defs>
    <linearGradient id="g" x1="0" y1="0" x2="1" y2="1">
      <stop offset="0%" stop-color="#14b8a6"/>
      <stop offset="100%" stop-color="#0f766e"/>
    </linearGradient>
  </defs>
  <rect width="512" height="512" rx="96" fill="url(#g)"/>
  <path fill="#fff" d="M154 134h160a42 42 0 0 1 42 42v160a42 42 0 0 1-42 42H176a42 42 0 0 1-42-42V154a20 20 0 0 1 20-20zm32 76a10 10 0 0 0 0 20h120a10 10 0 0 0 0-20H186zm0 56a10 10 0 0 0 0 20h120a10 10 0 0 0 0-20H186zm0 56a10 10 0 0 0 0 20h80a10 10 0 0 0 0-20h-80z"/>
</svg>
